<?xml version="1.0" encoding="utf-8"?>
<svg version="1.1" xmlns:xlink="http://www.w3.org/1999/xlink" width="20px" height="20px" viewBox="678 393  20 20" xmlns="http://www.w3.org/2000/svg">
  <path d="M 688 393  C 693.6 393  698 397.4  698 403  C 698 408.6  693.6 413  688 413  C 682.4 413  678 408.6  678 403  C 678 397.4  682.4 393  688 393  Z " fill-rule="nonzero" fill="#ffffff" stroke="none" fill-opacity="0" />
  <path d="M 688 393.5  C 693.32 393.5  697.5 397.68  697.5 403  C 697.5 408.32  693.32 412.5  688 412.5  C 682.68 412.5  678.5 408.32  678.5 403  C 678.5 397.68  682.68 393.5  688 393.5  Z " stroke-width="1" stroke="#797979" fill="none" />
  <path d="M 688 408  C 685.2 408  683 405.8  683 403  C 683 400.2  685.2 398  688 398  C 690.8 398  693 400.2  693 403  C 693 405.8  690.8 408  688 408  " fill-rule="nonzero" fill="#797979" stroke="none" />
</svg>