<?xml version="1.0" encoding="utf-8"?>
<svg version="1.1" xmlns:xlink="http://www.w3.org/1999/xlink" width="20px" height="20px" viewBox="807 530  20 20" xmlns="http://www.w3.org/2000/svg">
  <path d="M 817 530  C 822.6 530  827 534.4  827 540  C 827 545.6  822.6 550  817 550  C 811.4 550  807 545.6  807 540  C 807 534.4  811.4 530  817 530  Z " fill-rule="nonzero" fill="#ffffff" stroke="none" fill-opacity="0" />
  <path d="M 817 530.5  C 822.32 530.5  826.5 534.68  826.5 540  C 826.5 545.32  822.32 549.5  817 549.5  C 811.68 549.5  807.5 545.32  807.5 540  C 807.5 534.68  811.68 530.5  817 530.5  Z " stroke-width="1" stroke="#797979" fill="none" />
  <path d="M 817 545  C 814.2 545  812 542.8  812 540  C 812 537.2  814.2 535  817 535  C 819.8 535  822 537.2  822 540  C 822 542.8  819.8 545  817 545  " fill-rule="nonzero" fill="#797979" stroke="none" />
</svg>