<?xml version="1.0" encoding="utf-8"?>
<svg version="1.1" xmlns:xlink="http://www.w3.org/1999/xlink" width="20px" height="20px" viewBox="955 530  20 20" xmlns="http://www.w3.org/2000/svg">
  <path d="M 965 530  C 970.6 530  975 534.4  975 540  C 975 545.6  970.6 550  965 550  C 959.4 550  955 545.6  955 540  C 955 534.4  959.4 530  965 530  Z " fill-rule="nonzero" fill="#f0f0f0" stroke="none" />
  <path d="M 965 530.5  C 970.32 530.5  974.5 534.68  974.5 540  C 974.5 545.32  970.32 549.5  965 549.5  C 959.68 549.5  955.5 545.32  955.5 540  C 955.5 534.68  959.68 530.5  965 530.5  Z " stroke-width="1" stroke="#797979" fill="none" />
  <path d="M 965 545  C 962.2 545  960 542.8  960 540  C 960 537.2  962.2 535  965 535  C 967.8 535  970 537.2  970 540  C 970 542.8  967.8 545  965 545  " fill-rule="nonzero" fill="#797979" stroke="none" />
</svg>