<?xml version="1.0" encoding="utf-8"?>
<svg version="1.1" xmlns:xlink="http://www.w3.org/1999/xlink" width="20px" height="20px" viewBox="142 269  20 20" xmlns="http://www.w3.org/2000/svg">
  <path d="M 152 269  C 157.6 269  162 273.4  162 279  C 162 284.6  157.6 289  152 289  C 146.4 289  142 284.6  142 279  C 142 273.4  146.4 269  152 269  Z " fill-rule="nonzero" fill="#ffffff" stroke="none" fill-opacity="0" />
  <path d="M 152 269.5  C 157.32 269.5  161.5 273.68  161.5 279  C 161.5 284.32  157.32 288.5  152 288.5  C 146.68 288.5  142.5 284.32  142.5 279  C 142.5 273.68  146.68 269.5  152 269.5  Z " stroke-width="1" stroke="#797979" fill="none" />
  <path d="M 152 284  C 149.2 284  147 281.8  147 279  C 147 276.2  149.2 274  152 274  C 154.8 274  157 276.2  157 279  C 157 281.8  154.8 284  152 284  " fill-rule="nonzero" fill="#797979" stroke="none" />
</svg>