<?xml version="1.0" encoding="utf-8"?>
<svg version="1.1" xmlns:xlink="http://www.w3.org/1999/xlink" width="20px" height="20px" viewBox="137 98  20 20" xmlns="http://www.w3.org/2000/svg">
  <path d="M 147 98  C 152.6 98  157 102.4  157 108  C 157 113.6  152.6 118  147 118  C 141.4 118  137 113.6  137 108  C 137 102.4  141.4 98  147 98  Z " fill-rule="nonzero" fill="#f0f0f0" stroke="none" />
  <path d="M 147 98.5  C 152.32 98.5  156.5 102.68  156.5 108  C 156.5 113.32  152.32 117.5  147 117.5  C 141.68 117.5  137.5 113.32  137.5 108  C 137.5 102.68  141.68 98.5  147 98.5  Z " stroke-width="1" stroke="#797979" fill="none" />
  <path d="M 147 113  C 144.2 113  142 110.8  142 108  C 142 105.2  144.2 103  147 103  C 149.8 103  152 105.2  152 108  C 152 110.8  149.8 113  147 113  " fill-rule="nonzero" fill="#797979" stroke="none" />
</svg>