<?xml version="1.0" encoding="utf-8"?>
<svg version="1.1" xmlns:xlink="http://www.w3.org/1999/xlink" width="16px" height="16px" viewBox="655 1027  16 16" xmlns="http://www.w3.org/2000/svg">
  <path d="M 663 1027  C 667.48 1027  671 1030.52  671 1035  C 671 1039.48  667.48 1043  663 1043  C 658.52 1043  655 1039.48  655 1035  C 655 1030.52  658.52 1027  663 1027  Z " fill-rule="nonzero" fill="#ffffff" stroke="none" fill-opacity="0" />
  <path d="M 663 1027.5  C 667.2 1027.5  670.5 1030.8  670.5 1035  C 670.5 1039.2  667.2 1042.5  663 1042.5  C 658.8 1042.5  655.5 1039.2  655.5 1035  C 655.5 1030.8  658.8 1027.5  663 1027.5  Z " stroke-width="1" stroke="#797979" fill="none" />
  <path d="M 663 1039  C 660.76 1039  659 1037.24  659 1035  C 659 1032.76  660.76 1031  663 1031  C 665.24 1031  667 1032.76  667 1035  C 667 1037.24  665.24 1039  663 1039  " fill-rule="nonzero" fill="#797979" stroke="none" />
</svg>