<?xml version="1.0" encoding="utf-8"?>
<svg version="1.1" xmlns:xlink="http://www.w3.org/1999/xlink" width="16px" height="16px" viewBox="489 1027  16 16" xmlns="http://www.w3.org/2000/svg">
  <path d="M 497 1027  C 501.48 1027  505 1030.52  505 1035  C 505 1039.48  501.48 1043  497 1043  C 492.52 1043  489 1039.48  489 1035  C 489 1030.52  492.52 1027  497 1027  Z " fill-rule="nonzero" fill="#ffffff" stroke="none" fill-opacity="0" />
  <path d="M 497 1027.5  C 501.2 1027.5  504.5 1030.8  504.5 1035  C 504.5 1039.2  501.2 1042.5  497 1042.5  C 492.8 1042.5  489.5 1039.2  489.5 1035  C 489.5 1030.8  492.8 1027.5  497 1027.5  Z " stroke-width="1" stroke="#797979" fill="none" />
  <path d="M 497 1039  C 494.76 1039  493 1037.24  493 1035  C 493 1032.76  494.76 1031  497 1031  C 499.24 1031  501 1032.76  501 1035  C 501 1037.24  499.24 1039  497 1039  " fill-rule="nonzero" fill="#797979" stroke="none" />
</svg>