<?xml version="1.0" encoding="utf-8"?>
<svg version="1.1" xmlns:xlink="http://www.w3.org/1999/xlink" width="20px" height="20px" viewBox="431 198  20 20" xmlns="http://www.w3.org/2000/svg">
  <path d="M 441 198  C 446.6 198  451 202.4  451 208  C 451 213.6  446.6 218  441 218  C 435.4 218  431 213.6  431 208  C 431 202.4  435.4 198  441 198  Z " fill-rule="nonzero" fill="#f0f0f0" stroke="none" />
  <path d="M 441 198.5  C 446.32 198.5  450.5 202.68  450.5 208  C 450.5 213.32  446.32 217.5  441 217.5  C 435.68 217.5  431.5 213.32  431.5 208  C 431.5 202.68  435.68 198.5  441 198.5  Z " stroke-width="1" stroke="#797979" fill="none" />
  <path d="M 441 213  C 438.2 213  436 210.8  436 208  C 436 205.2  438.2 203  441 203  C 443.8 203  446 205.2  446 208  C 446 210.8  443.8 213  441 213  " fill-rule="nonzero" fill="#797979" stroke="none" />
</svg>