<?xml version="1.0" encoding="UTF-8"?>
<svg width="64px" height="64px" viewBox="0 0 64 64" version="1.1" xmlns="http://www.w3.org/2000/svg" xmlns:xlink="http://www.w3.org/1999/xlink">
    <title>路由器</title>
    <defs>
        <linearGradient x1="50%" y1="0%" x2="50%" y2="126.34901%" id="linearGradient-1">
            <stop stop-color="#21D4FD" offset="0%"></stop>
            <stop stop-color="#B721FF" offset="100%"></stop>
        </linearGradient>
    </defs>
    <g id="方案3" stroke="none" stroke-width="1" fill="none" fill-rule="evenodd">
        <g id="首页-空-适配最小尺寸" transform="translate(-608.000000, -108.000000)" fill-rule="nonzero">
            <g id="编组-12" transform="translate(248.000000, 92.000000)">
                <g id="编组-5" transform="translate(344.000000, 0.000000)">
                    <g id="路由器" transform="translate(16.000000, 16.000000)">
                        <rect id="矩形" fill="#000000" opacity="0" x="0" y="0" width="64" height="64"></rect>
                        <path d="M61.996563,50.8640323 L62.0912593,50.8279596 L55.7002667,34.0862061 C55.1022545,32.5333599 53.6063742,31.5056155 51.9345778,31.4989899 L50.637037,31.4989899 L50.637037,6.44848485 C50.637037,5.3416839 49.7349737,4.44444444 48.6222222,4.44444444 C47.5094707,4.44444444 46.6074074,5.3416839 46.6074074,6.44848485 L46.6074074,31.4989899 L34.0148148,31.4989899 L34.0148148,6.44848485 C34.0148148,5.3416839 33.1127515,4.44444444 32,4.44444444 C30.8872485,4.44444444 29.9851852,5.3416839 29.9851852,6.44848485 L29.9851852,31.4989899 L16.8888889,31.4989899 L16.8888889,6.44848485 C16.8888889,5.3416839 15.9868256,4.44444444 14.8740741,4.44444444 C13.7613226,4.44444444 12.8592593,5.3416839 12.8592593,6.44848485 L12.8592593,31.4989899 L12.0654222,31.4989899 C10.3928886,31.5047896 8.89599642,32.5326792 8.29771852,34.0862061 L1.90874074,50.8279596 L2.00343704,50.8640323 C1.87045926,51.4051232 1.77777778,51.9602424 1.77777778,52.5414141 C1.77777778,56.4092121 4.94103704,59.5555556 8.82962963,59.5555556 L55.1703704,59.5555556 C59.058963,59.5555556 62.2222222,56.4092121 62.2222222,52.5414141 C62.2222222,51.9602424 62.1295407,51.4051232 61.996563,50.8640323 Z M12.0654222,35.5070707 L51.932563,35.5070707 L55.7808593,45.589398 C55.577363,45.5713616 55.3799111,45.5272727 55.1703704,45.5272727 L8.82962963,45.5272727 C8.62008889,45.5272727 8.42263704,45.5713616 8.21914074,45.589398 L12.0654222,35.5070707 Z M55.1703704,55.5474747 L8.82962963,55.5474747 C7.16337778,55.5474747 5.80740741,54.1987556 5.80740741,52.5414141 C5.80740741,50.8840727 7.16337778,49.5353535 8.82962963,49.5353535 L55.1703704,49.5353535 C56.8366222,49.5353535 58.1925926,50.8840727 58.1925926,52.5414141 C58.1925926,54.1987556 56.8366222,55.5474747 55.1703704,55.5474747 Z" id="形状" fill="url(#linearGradient-1)"></path>
                    </g>
                </g>
            </g>
        </g>
    </g>
</svg>