<?xml version="1.0" encoding="UTF-8"?>
<svg width="64px" height="64px" viewBox="0 0 64 64" version="1.1" xmlns="http://www.w3.org/2000/svg" xmlns:xlink="http://www.w3.org/1999/xlink">
    <title>设备</title>
    <defs>
        <linearGradient x1="50%" y1="0%" x2="50%" y2="126.34901%" id="linearGradient-1">
            <stop stop-color="#21D4FD" offset="0%"></stop>
            <stop stop-color="#B721FF" offset="100%"></stop>
        </linearGradient>
    </defs>
    <g id="方案3" stroke="none" stroke-width="1" fill="none" fill-rule="evenodd">
        <g id="首页-空-适配最小尺寸" transform="translate(-952.000000, -108.000000)" fill-rule="nonzero">
            <g id="编组-12" transform="translate(248.000000, 92.000000)">
                <g id="编组-6" transform="translate(688.000000, 0.000000)">
                    <g id="设备" transform="translate(16.000000, 16.000000)">
                        <rect id="矩形" fill="#000000" opacity="0" x="0" y="0" width="64" height="64"></rect>
                        <g id="编组-3" transform="translate(4.444444, 8.000000)" fill="url(#linearGradient-1)">
                            <path d="M45.7995338,0 C47.987568,0 49.7777778,1.79906299 49.7777778,3.99791775 L49.7777778,12.024987 C49.7777778,13.1306611 48.8826729,14.0301926 47.7762238,14.0301926 C46.6697747,14.0301926 45.7746698,13.1306611 45.7746698,12.024987 L45.7746698,6.02811036 C45.7746698,4.92868298 44.8795649,4.02915148 43.7855478,4.02915148 L5.998446,4.02915148 C4.9044289,4.02915148 4.00932401,4.92868298 4.00932401,6.02811036 L4.00932401,30.0093701 C4.00932401,31.1087975 4.9044289,32.008329 5.998446,32.008329 L39.8073038,32.008329 C40.9013209,32.0208225 41.7902098,32.9141072 41.7902098,34.0135346 C41.7902098,35.1192087 40.9075369,36.0062467 39.8073038,36.0187402 L26.958819,36.024987 L26.958819,44.0020822 L36.8422688,44.0020822 C37.9362859,44.0020822 38.8313908,44.9016137 38.8313908,46.0010411 C38.8251748,47.1004685 37.9300699,48 36.8422688,48 L13.1219891,48 C12.027972,48 11.1328671,47.1004685 11.1328671,46.0010411 C11.1328671,44.9016137 12.027972,44.0020822 13.1219891,44.0020822 L22.7567988,44.0020822 L22.7567988,36.024987 L3.97824398,36.024987 C1.79020979,36.024987 0,34.225924 0,32.0270692 L0,3.99791775 C0,1.79906299 1.79020979,0 3.97824398,0 L45.7995338,0 Z M53.1531081,25.7777778 C54.2300097,25.7777778 55.1111111,26.6580529 55.1111111,27.7339446 L55.1111111,43.3771665 C55.1111111,44.4530582 54.2300097,45.3333333 53.1531081,45.3333333 L47.2913364,45.3333333 C46.2144347,45.3333333 45.3333333,44.4530582 45.3333333,43.3771665 L45.3333333,27.7339446 C45.3333333,26.6580529 46.2144347,25.7777778 47.2913364,25.7777778 L53.1531081,25.7777778 Z M50.3568349,43.3038102 C50.0019469,43.3038102 49.7143652,43.5911222 49.7143652,43.9456775 C49.7143652,44.3002327 50.0019469,44.5875447 50.3568349,44.5875447 C50.711723,44.5875447 50.9993047,44.3002327 50.9993047,43.9456775 C50.9993047,43.5911222 50.711723,43.3038102 50.3568349,43.3038102 Z M54.4747601,28.4430551 L45.9696843,28.4430551 L45.9696843,42.374631 L54.4747601,42.374631 L54.4747601,28.4430551 Z M46.4444444,18.0754991 C47.1320024,17.6785373 47.9791087,17.6785373 48.6666667,18.0754991 C49.3542247,18.4724609 49.7777778,19.2060765 49.7777778,20 C49.7777778,20.7939235 49.3542247,21.5275391 48.6666667,21.9245009 C47.9791087,22.3214627 47.1320024,22.3214627 46.4444444,21.9245009 C45.7568864,21.5275391 45.3333333,20.7939235 45.3333333,20 C45.3333333,19.2060765 45.7568864,18.4724609 46.4444444,18.0754991 Z" id="形状结合"></path>
                        </g>
                    </g>
                </g>
            </g>
        </g>
    </g>
</svg>