<?xml version="1.0" encoding="UTF-8"?>
<svg width="64px" height="64px" viewBox="0 0 64 64" version="1.1" xmlns="http://www.w3.org/2000/svg" xmlns:xlink="http://www.w3.org/1999/xlink">
    <title>网络,地球</title>
    <defs>
        <linearGradient x1="50%" y1="0%" x2="50%" y2="126.34901%" id="linearGradient-1">
            <stop stop-color="#21D4FD" offset="0%"></stop>
            <stop stop-color="#B721FF" offset="100%"></stop>
        </linearGradient>
    </defs>
    <g id="方案3" stroke="none" stroke-width="1" fill="none" fill-rule="evenodd">
        <g id="首页-空-适配最小尺寸" transform="translate(-264.000000, -108.000000)" fill-rule="nonzero">
            <g id="编组-12" transform="translate(248.000000, 92.000000)">
                <g id="网络,地球" transform="translate(16.000000, 16.000000)">
                    <rect id="矩形" fill="#000000" opacity="0" x="0" y="0" width="64" height="64"></rect>
                    <path d="M63.9875024,31.71875 C63.9750049,30.2 63.8562781,28.7125 63.6375708,27.25 C62.6752587,20.76875 59.7695763,14.925 55.526655,10.325 C54.051943,8.725 52.4147627,7.275 50.6463581,6 C50.0402265,5.5625 49.4153486,5.14375 48.7779731,4.75 C47.2095294,3.78125 45.5536028,2.95 43.8226909,2.25625 C40.248389,0.8375 36.3553993,0.0375 32.2749463,0 L31.9937512,0 C30.7127514,0 29.4567467,0.075 28.2132396,0.21875 C15.2595196,1.74375 4.67408709,11.0125 1.20601445,23.26875 C0.631126733,25.3 0.249951181,27.4125 0.0874829135,29.58125 C0.0312438977,30.38125 0,31.1875 0,32 C0,38.5125 1.94337044,44.56875 5.28646749,49.625 C6.18629174,50.99375 7.19234525,52.2875 8.29213044,53.49375 C8.43585237,53.65 8.5795743,53.80625 8.72954501,53.9625 C10.0792814,55.39375 11.5539934,56.69375 13.1474321,57.85625 C18.4338996,61.71875 24.9513767,64 32,64 C48.3905487,64 61.9004101,51.66875 63.7750439,35.78125 C63.8562781,35.08125 63.9187659,34.36875 63.9562585,33.65625 C63.9812537,33.10625 64,32.55625 64,32.00625 C63.9875024,31.90625 63.9875024,31.8125 63.9875024,31.71875 L63.9875024,31.71875 Z M49.1404023,22.6875 C50.8088264,22.03125 51.9898457,20.4 51.9898457,18.5 C51.9898457,16.9375 51.1962507,15.5625 49.9902363,14.75625 L49.9902363,14.5 C49.9902363,13.10625 49.9152509,11.73125 49.7777778,10.375 C50.4713923,10.95 51.1462605,11.5625 51.7898848,12.20625 C54.364382,14.78125 56.3827377,17.775 57.7887131,21.10625 C59.2509276,24.55 59.9882835,28.21875 59.9882835,32 C56.2077719,32 52.5397383,31.2625 49.090412,29.8 C48.4655341,29.5375 47.8594025,29.25 47.2595196,28.95 C48.0531146,26.9375 48.6842414,24.84375 49.1404023,22.6875 Z M56.2077719,35.78125 C55.2892013,36.55 54.3268893,37.275 53.3333333,37.94375 C51.4337044,39.225 49.4090998,40.325 47.3032611,41.21875 C43.9914079,42.61875 40.5170865,43.5 36.9427846,43.84375 C40.4670963,40.6625 43.4165202,36.85625 45.6098418,32.6 C48.865456,34.2375 52.4335091,35.3375 56.2077719,35.78125 L56.2077719,35.78125 Z M45.747315,10.2875 C45.9035345,11.6 45.9847686,12.91875 45.9910174,14.25625 C44.2476079,14.875 42.9916032,16.5375 42.9916032,18.5 C42.9916032,20.11875 43.847686,21.5375 45.1286858,22.33125 C44.7850029,23.8625 44.3350908,25.36875 43.791447,26.84375 C42.516696,25.9375 41.3169303,24.91875 40.1983988,23.8 C37.6239016,21.225 35.6055458,18.23125 34.1995704,14.9 C34.0495997,14.54375 33.9058778,14.18125 33.7684046,13.81875 C34.3432923,13.5375 34.9244288,13.275 35.5180629,13.025 C38.7924234,11.63125 42.2230033,10.71875 45.747315,10.2875 L45.747315,10.2875 Z M42.8916227,6.2 C43.1540715,6.3125 43.4165202,6.425 43.6727202,6.54375 C39.7859793,7.16875 36.080453,8.325 32.6186292,9.93125 C32.1999609,8 31.9937512,6.0125 31.9937512,4 C35.7742628,4 39.4422964,4.7375 42.8916227,6.2 Z M30.2253466,15.7625 C32.6186292,21.825 36.817809,26.98125 42.1542667,30.575 C41.4918961,31.875 40.7482913,33.1375 39.9297012,34.35 C38.661199,36.23125 37.1989846,38 35.5930482,39.60625 C34.5932435,40.60625 33.5247022,41.55625 32.4061707,42.43125 C31.8250342,42.15625 31.1751611,42.00625 30.4877954,42.00625 C29.1818004,42.00625 28.0070299,42.5625 27.1884398,43.45 C24.6139426,42.9875 22.1019332,42.24375 19.6774068,41.21875 C17.5778168,40.33125 15.5469635,39.225 13.6473345,37.94375 C13.5973443,37.90625 13.5411053,37.875 13.491115,37.8375 C13.9097832,36.375 14.4221832,34.9375 15.022066,33.525 C15.9843781,31.24375 17.1778949,29.04375 18.5713728,26.9875 C19.0712751,26.24375 19.6024214,25.51875 20.1585628,24.80625 C20.5834798,24.9375 21.0333919,25.0125 21.4958016,25.0125 C23.9828159,25.0125 25.9949229,23 25.9949229,20.5125 C25.9949229,19.9875 25.90744,19.4875 25.7449717,19.025 C26.7760203,18.15625 27.8570592,17.3375 28.9755907,16.5875 C29.3817614,16.29375 29.8004296,16.025 30.2253466,15.7625 L30.2253466,15.7625 Z M8.04217926,46.5125 C7.34231595,45.35625 6.72368678,44.15 6.1987893,42.9 C5.11775044,40.35 4.43663347,37.68125 4.14918961,34.9375 C5.62390158,36.575 7.2360867,38.0875 8.96074985,39.45625 C8.46709627,41.74375 8.15465729,44.1 8.04217926,46.5125 L8.04217926,46.5125 Z M8.3983597,33.6 C6.85491115,32.05625 5.44268698,30.35625 4.21167741,28.55625 C4.52411638,25.9875 5.19273579,23.49375 6.1987893,21.1 C7.61101347,17.76875 9.62936926,14.76875 12.1976177,12.2 C14.7721148,9.625 17.7652802,7.60625 21.0958797,6.2 C23.3141964,5.2625 25.6199961,4.61875 27.9945323,4.28125 C28.0195274,6.8875 28.3507128,9.425 28.9630931,11.85 C26.7947666,13.125 24.7576645,14.5875 22.8580355,16.2125 C22.4268698,16.075 21.9707088,16 21.4958016,16 C19.0087873,16 16.9966803,18.0125 16.9966803,20.5 C16.9966803,21.03125 17.090412,21.5375 17.2591291,22.0125 C14.1472369,25.9125 11.7102128,30.36875 10.1167741,35.2125 C9.52314001,34.69375 8.94825229,34.15625 8.3983597,33.6 L8.3983597,33.6 Z M12.0226518,49.96875 C12.0039055,49.48125 11.9976567,48.99375 11.9976567,48.5 C11.9976567,46.3 12.1788713,44.125 12.5413005,41.9875 C16.240578,44.30625 20.3522749,46.03125 24.7389182,47.025 L24.3077524,47.2125 C20.4022652,48.8625 16.2780707,49.7875 12.0226518,49.96875 Z M57.7887131,42.9 C56.376489,46.23125 54.3581332,49.23125 51.7898848,51.8 C49.2153876,54.375 46.2222222,56.39375 42.8916227,57.8 C39.4422964,59.2625 35.7742628,60 31.9937512,60 C28.2132396,60 24.545206,59.2625 21.0958797,57.8 C18.6838508,56.78125 16.4530365,55.44375 14.4284319,53.80625 C19.1587581,53.3375 23.639133,52.0375 27.7320836,50.05 C28.4944347,50.64375 29.4504979,51 30.4940441,51 C32.4624097,51 34.1308338,49.7375 34.7432142,47.98125 C44.0913884,47.6875 52.6209725,44.15 59.2446788,38.45 C58.8884983,39.9625 58.4010935,41.45 57.7887131,42.9 L57.7887131,42.9 Z" id="形状" fill="url(#linearGradient-1)"></path>
                </g>
            </g>
        </g>
    </g>
</svg>