<?xml version="1.0" encoding="utf-8"?>
<svg version="1.1" xmlns:xlink="http://www.w3.org/1999/xlink" width="16px" height="16px" viewBox="655 1042  16 16" xmlns="http://www.w3.org/2000/svg">
  <path d="M 663 1042  C 667.48 1042  671 1045.52  671 1050  C 671 1054.48  667.48 1058  663 1058  C 658.52 1058  655 1054.48  655 1050  C 655 1045.52  658.52 1042  663 1042  Z " fill-rule="nonzero" fill="#ffffff" stroke="none" fill-opacity="0" />
  <path d="M 663 1042.5  C 667.2 1042.5  670.5 1045.8  670.5 1050  C 670.5 1054.2  667.2 1057.5  663 1057.5  C 658.8 1057.5  655.5 1054.2  655.5 1050  C 655.5 1045.8  658.8 1042.5  663 1042.5  Z " stroke-width="1" stroke="#797979" fill="none" />
  <path d="M 663 1054  C 660.76 1054  659 1052.24  659 1050  C 659 1047.76  660.76 1046  663 1046  C 665.24 1046  667 1047.76  667 1050  C 667 1052.24  665.24 1054  663 1054  " fill-rule="nonzero" fill="#797979" stroke="none" />
</svg>