<?xml version="1.0" encoding="utf-8"?>
<svg version="1.1" xmlns:xlink="http://www.w3.org/1999/xlink" width="16px" height="16px" viewBox="489 1042  16 16" xmlns="http://www.w3.org/2000/svg">
  <path d="M 497 1042  C 501.48 1042  505 1045.52  505 1050  C 505 1054.48  501.48 1058  497 1058  C 492.52 1058  489 1054.48  489 1050  C 489 1045.52  492.52 1042  497 1042  Z " fill-rule="nonzero" fill="#f0f0f0" stroke="none" />
  <path d="M 497 1042.5  C 501.2 1042.5  504.5 1045.8  504.5 1050  C 504.5 1054.2  501.2 1057.5  497 1057.5  C 492.8 1057.5  489.5 1054.2  489.5 1050  C 489.5 1045.8  492.8 1042.5  497 1042.5  Z " stroke-width="1" stroke="#797979" fill="none" />
  <path d="M 497 1054  C 494.76 1054  493 1052.24  493 1050  C 493 1047.76  494.76 1046  497 1046  C 499.24 1046  501 1047.76  501 1050  C 501 1052.24  499.24 1054  497 1054  " fill-rule="nonzero" fill="#797979" stroke="none" />
</svg>