<?xml version="1.0" encoding="utf-8"?>
<svg version="1.1" xmlns:xlink="http://www.w3.org/1999/xlink" width="16px" height="16px" viewBox="572 1042  16 16" xmlns="http://www.w3.org/2000/svg">
  <path d="M 580 1042  C 584.48 1042  588 1045.52  588 1050  C 588 1054.48  584.48 1058  580 1058  C 575.52 1058  572 1054.48  572 1050  C 572 1045.52  575.52 1042  580 1042  Z " fill-rule="nonzero" fill="#f0f0f0" stroke="none" />
  <path d="M 580 1042.5  C 584.2 1042.5  587.5 1045.8  587.5 1050  C 587.5 1054.2  584.2 1057.5  580 1057.5  C 575.8 1057.5  572.5 1054.2  572.5 1050  C 572.5 1045.8  575.8 1042.5  580 1042.5  Z " stroke-width="1" stroke="#797979" fill="none" />
  <path d="M 580 1054  C 577.76 1054  576 1052.24  576 1050  C 576 1047.76  577.76 1046  580 1046  C 582.24 1046  584 1047.76  584 1050  C 584 1052.24  582.24 1054  580 1054  " fill-rule="nonzero" fill="#797979" stroke="none" />
</svg>