<?xml version="1.0" encoding="utf-8"?>
<svg version="1.1" xmlns:xlink="http://www.w3.org/1999/xlink" width="30px" height="30px" viewBox="0 24  30 30" xmlns="http://www.w3.org/2000/svg">
  <path d="M 0.5 29  A 4.5 4.5 0 0 1 4.999999999999999 24.5 L 25 24.5  A 4.5 4.5 0 0 1 29.5 29 L 29.5 49  A 4.5 4.5 0 0 1 25 53.5 L 5 53.5  A 4.5 4.5 0 0 1 0.5 49 L 0.5 29  Z " fill-rule="nonzero" fill="#ffffff" stroke="none" fill-opacity="0" />
  <path d="M 0.5 29  A 4.5 4.5 0 0 1 4.999999999999999 24.5 L 25 24.5  A 4.5 4.5 0 0 1 29.5 29 L 29.5 49  A 4.5 4.5 0 0 1 25 53.5 L 5 53.5  A 4.5 4.5 0 0 1 0.5 49 L 0.5 29  Z " stroke-width="1" stroke="#797979" fill="none" />
  <path d="M 6.428571428571429 39  L 12.857142857142858 45.42857142857142  L 23.57142857142857 30.42857142857143  " stroke-width="6.428571428571429" stroke="#797979" fill="none" />
</svg>