<?xml version="1.0" encoding="utf-8"?>
<svg version="1.1" xmlns:xlink="http://www.w3.org/1999/xlink" width="30px" height="30px" viewBox="0 486  30 30" xmlns="http://www.w3.org/2000/svg">
  <path d="M 0.5 491  A 4.5 4.5 0 0 1 4.999999999999999 486.5 L 25 486.5  A 4.5 4.5 0 0 1 29.5 491 L 29.5 511  A 4.5 4.5 0 0 1 25 515.5 L 5 515.5  A 4.5 4.5 0 0 1 0.5 511 L 0.5 491  Z " fill-rule="nonzero" fill="#ffffff" stroke="none" fill-opacity="0" />
  <path d="M 0.5 491  A 4.5 4.5 0 0 1 4.999999999999999 486.5 L 25 486.5  A 4.5 4.5 0 0 1 29.5 491 L 29.5 511  A 4.5 4.5 0 0 1 25 515.5 L 5 515.5  A 4.5 4.5 0 0 1 0.5 511 L 0.5 491  Z " stroke-width="1" stroke="#797979" fill="none" />
  <path d="M 6.428571428571429 501  L 12.857142857142858 507.4285714285714  L 23.57142857142857 492.42857142857144  " stroke-width="6.428571428571429" stroke="#797979" fill="none" />
</svg>