<?xml version="1.0" encoding="utf-8"?>
<svg version="1.1" xmlns:xlink="http://www.w3.org/1999/xlink" width="30px" height="30px" viewBox="0 409  30 30" xmlns="http://www.w3.org/2000/svg">
  <path d="M 0.5 414  A 4.5 4.5 0 0 1 4.999999999999999 409.5 L 25 409.5  A 4.5 4.5 0 0 1 29.5 414 L 29.5 434  A 4.5 4.5 0 0 1 25 438.5 L 5 438.5  A 4.5 4.5 0 0 1 0.5 434 L 0.5 414  Z " fill-rule="nonzero" fill="#f0f0f0" stroke="none" />
  <path d="M 0.5 414  A 4.5 4.5 0 0 1 4.999999999999999 409.5 L 25 409.5  A 4.5 4.5 0 0 1 29.5 414 L 29.5 434  A 4.5 4.5 0 0 1 25 438.5 L 5 438.5  A 4.5 4.5 0 0 1 0.5 434 L 0.5 414  Z " stroke-width="1" stroke="#797979" fill="none" />
</svg>