<?xml version="1.0" encoding="utf-8"?>
<svg version="1.1" xmlns:xlink="http://www.w3.org/1999/xlink" width="30px" height="30px" viewBox="0 255  30 30" xmlns="http://www.w3.org/2000/svg">
  <path d="M 0.5 260  A 4.5 4.5 0 0 1 4.999999999999999 255.5 L 25 255.5  A 4.5 4.5 0 0 1 29.5 260 L 29.5 280  A 4.5 4.5 0 0 1 25 284.5 L 5 284.5  A 4.5 4.5 0 0 1 0.5 280 L 0.5 260  Z " fill-rule="nonzero" fill="#f0f0f0" stroke="none" />
  <path d="M 0.5 260  A 4.5 4.5 0 0 1 4.999999999999999 255.5 L 25 255.5  A 4.5 4.5 0 0 1 29.5 260 L 29.5 280  A 4.5 4.5 0 0 1 25 284.5 L 5 284.5  A 4.5 4.5 0 0 1 0.5 280 L 0.5 260  Z " stroke-width="1" stroke="#797979" fill="none" />
  <path d="M 6.428571428571429 270  L 12.857142857142858 276.4285714285714  L 23.57142857142857 261.42857142857144  " stroke-width="6.428571428571429" stroke="#797979" fill="none" />
</svg>