<?xml version="1.0" encoding="utf-8"?>
<svg version="1.1" xmlns:xlink="http://www.w3.org/1999/xlink" width="30px" height="30px" viewBox="0 101  30 30" xmlns="http://www.w3.org/2000/svg">
  <path d="M 0.5 106  A 4.5 4.5 0 0 1 4.999999999999999 101.5 L 25 101.5  A 4.5 4.5 0 0 1 29.5 106 L 29.5 126  A 4.5 4.5 0 0 1 25 130.5 L 5 130.5  A 4.5 4.5 0 0 1 0.5 126 L 0.5 106  Z " fill-rule="nonzero" fill="#ffffff" stroke="none" fill-opacity="0" />
  <path d="M 0.5 106  A 4.5 4.5 0 0 1 4.999999999999999 101.5 L 25 101.5  A 4.5 4.5 0 0 1 29.5 106 L 29.5 126  A 4.5 4.5 0 0 1 25 130.5 L 5 130.5  A 4.5 4.5 0 0 1 0.5 126 L 0.5 106  Z " stroke-width="1" stroke="#797979" fill="none" />
</svg>