<?xml version="1.0" encoding="utf-8"?>
<svg version="1.1" xmlns:xlink="http://www.w3.org/1999/xlink" width="20px" height="20px" viewBox="665 521  20 20" xmlns="http://www.w3.org/2000/svg">
  <path d="M 675 522  C 680.04 522  684 525.96  684 531  C 684 536.04  680.04 540  675 540  C 669.96 540  666 536.04  666 531  C 666 525.96  669.96 522  675 522  Z " fill-rule="nonzero" fill="#f0f0f0" stroke="none" />
  <path d="M 675 522  C 680.04 522  684 525.96  684 531  C 684 536.04  680.04 540  675 540  C 669.96 540  666 536.04  666 531  C 666 525.96  669.96 522  675 522  Z " stroke-width="2" stroke="#000000" fill="none" />
  <path d="M 675 536  C 672.2 536  670 533.8  670 531  C 670 528.2  672.2 526  675 526  C 677.8 526  680 528.2  680 531  C 680 533.8  677.8 536  675 536  " fill-rule="nonzero" fill="#000000" stroke="none" />
</svg>