<?xml version="1.0" encoding="utf-8"?>
<svg version="1.1" xmlns:xlink="http://www.w3.org/1999/xlink" width="55px" height="55px" xmlns="http://www.w3.org/2000/svg">
  <g transform="matrix(1 0 0 1 -452 -275 )">
    <path d="M 479.5 275  C 494.9 275  507 287.1  507 302.5  C 507 317.9  494.9 330  479.5 330  C 464.1 330  452 317.9  452 302.5  C 452 287.1  464.1 275  479.5 275  Z " fill-rule="nonzero" fill="#606060" stroke="none" />
    <path d="M 479.5 275.5  C 494.62 275.5  506.5 287.38  506.5 302.5  C 506.5 317.62  494.62 329.5  479.5 329.5  C 464.38 329.5  452.5 317.62  452.5 302.5  C 452.5 287.38  464.38 275.5  479.5 275.5  Z " stroke-width="1" stroke="#797979" fill="none" />
  </g>
</svg>