<?xml version="1.0" encoding="utf-8"?>
<svg version="1.1" xmlns:xlink="http://www.w3.org/1999/xlink" width="16px" height="16px" viewBox="504 1043  16 16" xmlns="http://www.w3.org/2000/svg">
  <path d="M 512 1043  C 516.48 1043  520 1046.52  520 1051  C 520 1055.48  516.48 1059  512 1059  C 507.52 1059  504 1055.48  504 1051  C 504 1046.52  507.52 1043  512 1043  Z " fill-rule="nonzero" fill="#f0f0f0" stroke="none" />
  <path d="M 512 1043.5  C 516.2 1043.5  519.5 1046.8  519.5 1051  C 519.5 1055.2  516.2 1058.5  512 1058.5  C 507.8 1058.5  504.5 1055.2  504.5 1051  C 504.5 1046.8  507.8 1043.5  512 1043.5  Z " stroke-width="1" stroke="#797979" fill="none" />
  <path d="M 512 1055  C 509.76 1055  508 1053.24  508 1051  C 508 1048.76  509.76 1047  512 1047  C 514.24 1047  516 1048.76  516 1051  C 516 1053.24  514.24 1055  512 1055  " fill-rule="nonzero" fill="#797979" stroke="none" />
</svg>