<?xml version="1.0" encoding="utf-8"?>
<svg version="1.1" xmlns:xlink="http://www.w3.org/1999/xlink" width="16px" height="16px" viewBox="587 1043  16 16" xmlns="http://www.w3.org/2000/svg">
  <path d="M 595 1043  C 599.48 1043  603 1046.52  603 1051  C 603 1055.48  599.48 1059  595 1059  C 590.52 1059  587 1055.48  587 1051  C 587 1046.52  590.52 1043  595 1043  Z " fill-rule="nonzero" fill="#ffffff" stroke="none" fill-opacity="0" />
  <path d="M 595 1043.5  C 599.2 1043.5  602.5 1046.8  602.5 1051  C 602.5 1055.2  599.2 1058.5  595 1058.5  C 590.8 1058.5  587.5 1055.2  587.5 1051  C 587.5 1046.8  590.8 1043.5  595 1043.5  Z " stroke-width="1" stroke="#797979" fill="none" />
  <path d="M 595 1055  C 592.76 1055  591 1053.24  591 1051  C 591 1048.76  592.76 1047  595 1047  C 597.24 1047  599 1048.76  599 1051  C 599 1053.24  597.24 1055  595 1055  " fill-rule="nonzero" fill="#797979" stroke="none" />
</svg>