<?xml version="1.0" encoding="utf-8"?>
<svg version="1.1" xmlns:xlink="http://www.w3.org/1999/xlink" width="20px" height="20px" viewBox="942 503  20 20" xmlns="http://www.w3.org/2000/svg">
  <path d="M 952 503  C 957.6 503  962 507.4  962 513  C 962 518.6  957.6 523  952 523  C 946.4 523  942 518.6  942 513  C 942 507.4  946.4 503  952 503  Z " fill-rule="nonzero" fill="#f0f0f0" stroke="none" />
  <path d="M 952 503.5  C 957.32 503.5  961.5 507.68  961.5 513  C 961.5 518.32  957.32 522.5  952 522.5  C 946.68 522.5  942.5 518.32  942.5 513  C 942.5 507.68  946.68 503.5  952 503.5  Z " stroke-width="1" stroke="#797979" fill="none" />
  <path d="M 952 518  C 949.2 518  947 515.8  947 513  C 947 510.2  949.2 508  952 508  C 954.8 508  957 510.2  957 513  C 957 515.8  954.8 518  952 518  " fill-rule="nonzero" fill="#797979" stroke="none" />
</svg>