<?xml version="1.0" encoding="UTF-8"?>
<svg width="24px" height="24px" viewBox="0 0 24 24" version="1.1" xmlns="http://www.w3.org/2000/svg" xmlns:xlink="http://www.w3.org/1999/xlink">
    <title>icon_基础_不可见</title>
    <g id="20230807" stroke="none" stroke-width="1" fill="none" fill-rule="evenodd" fill-opacity="0.25">
        <g id="42-用户协议许可等" transform="translate(-761.000000, -423.000000)" fill="#000000" fill-rule="nonzero">
            <g id="编组-4" transform="translate(446.000000, 141.000000)">
                <g id="编组-6" transform="translate(36.000000, 274.000000)">
                    <g id="可见" transform="translate(279.000000, 8.000000)">
                        <rect id="矩形" opacity="0" x="0" y="0" width="24" height="24"></rect>
                        <path d="M22.246875,10.7203125 C20.371875,6.95390625 16.4929687,4.36171875 12,4.36171875 C7.50703125,4.36171875 3.628125,6.95390625 1.753125,10.7203125 C1.3546875,11.521875 1.3546875,12.4804687 1.753125,13.2796875 C3.628125,17.0460937 7.50703125,19.6382812 12,19.6382812 C16.4929687,19.6382812 20.371875,17.0460937 22.246875,13.2796875 C22.6476562,12.4804687 22.6476562,11.5195312 22.246875,10.7203125 L22.246875,10.7203125 Z M19.1414062,13.9148437 C17.4632812,16.0054687 14.8898437,17.3460938 12,17.3460938 C9.11015625,17.3460938 6.53671875,16.0054687 4.85859375,13.9148437 C3.96328125,12.796875 3.96328125,11.2007813 4.85859375,10.0851563 C6.53671875,7.99453125 9.1078125,6.65390625 12,6.65390625 C14.8921875,6.65390625 17.4632812,7.99453125 19.1414062,10.0851563 C20.0367187,11.2007813 20.0367187,12.7992187 19.1414062,13.9148437 Z" id="形状"></path>
                        <path d="M12,8.94375 C10.3125,8.94375 8.94375,10.3125 8.94375,12 C8.94375,13.6875 10.3125,15.05625 12,15.05625 C13.6875,15.05625 15.05625,13.6875 15.05625,12 C15.05625,10.3125 13.6875,8.94375 12,8.94375 Z M12,13.528125 C11.15625,13.528125 10.471875,12.84375 10.471875,12 C10.471875,11.15625 11.15625,10.471875 12,10.471875 C12.84375,10.471875 13.528125,11.15625 13.528125,12 C13.528125,12.84375 12.84375,13.528125 12,13.528125 Z" id="形状"></path>
                    </g>
                </g>
            </g>
        </g>
    </g>
</svg>