<?xml version="1.0" encoding="UTF-8"?>
<svg width="16px" height="16px" viewBox="0 0 16 16" version="1.1" xmlns="http://www.w3.org/2000/svg" xmlns:xlink="http://www.w3.org/1999/xlink">
    <title>icon_基础_编辑</title>
    <g id="控件" stroke="none" stroke-width="1" fill="none" fill-rule="evenodd">
        <g id="上网保护列表" transform="translate(-593.000000, -17.000000)" fill="#1890FF" fill-rule="nonzero">
            <g id="icon_基础_编辑" transform="translate(593.000000, 17.000000)">
                <rect id="矩形" opacity="0" x="0" y="0" width="16" height="16"></rect>
                <path d="M14.4533333,13.8133333 L1.6,13.8133333 C1.33333333,13.8133333 1.12,14.0266667 1.12,14.2933333 C1.12,14.56 1.33333333,14.7733333 1.6,14.7733333 L14.5066667,14.7733333 C14.7733333,14.7733333 14.9866667,14.56 14.9866667,14.2933333 C14.9333333,14.08 14.72,13.8133333 14.4533333,13.8133333 Z M1.54666667,12.3733333 L3.84,12.3733333 C3.94666667,12.3733333 4.10666667,12.32 4.16,12.2133333 L12.0533333,4.32 C12.2666667,4.10666667 12.2666667,3.84 12.0533333,3.62666667 L9.81333333,1.33333333 C9.6,1.12 9.33333333,1.12 9.12,1.33333333 L7.52,2.93333333 L1.22666667,9.22666667 C1.12,9.33333334 1.06666667,9.44 1.06666667,9.54666667 L1.06666667,11.84 C1.06666667,11.9466667 1.12,12.1066667 1.22666667,12.2133333 C1.28,12.32 1.44,12.3733333 1.54666667,12.3733333 Z M9.44,2.34666667 L11.04,3.94666667 L10.1333333,4.85333333 L8.53333333,3.25333333 L9.44,2.34666667 Z M2.08,9.76 L7.89333333,3.94666667 L9.49333333,5.54666667 L3.68,11.36 L2.08,11.36 L2.08,9.76 L2.08,9.76 Z" id="形状"></path>
            </g>
        </g>
    </g>
</svg>