<?xml version="1.0" encoding="UTF-8"?>
<svg width="20px" height="20px" viewBox="0 0 20 20" version="1.1" xmlns="http://www.w3.org/2000/svg" xmlns:xlink="http://www.w3.org/1999/xlink">
    <title>icon_首页_免费wif</title>
    <g id="20230807" stroke="none" stroke-width="1" fill="none" fill-rule="evenodd">
        <g id="04-首页-双频合一" transform="translate(-772.000000, -110.000000)" fill-rule="nonzero">
            <g id="编组-12" transform="translate(248.000000, 92.000000)">
                <g id="icon_首页_免费wif" transform="translate(524.000000, 18.000000)">
                    <rect id="矩形" fill="#000000" opacity="0" x="0" y="0" width="20" height="20"></rect>
                    <path d="M10.0000302,0 C15.5236689,0 20,4.47693798 20,10.0000302 C20,15.523062 15.5236488,20 10.0000101,20 C4.47633112,20 0,15.5230822 0,10.0000302 C0,4.47691781 4.47631094,0 10.0000302,0 Z M12.75,5.625 L7.75,5.625 L7.75,6.625 L6.75,6.625 L6.75,8.625 L4.75,8.625 L4.75,14.625 L15.75,14.625 L15.75,8.625 L13.75,8.625 L13.75,6.625 L12.75,6.625 L12.75,5.625 Z M11.75,6.625 L11.75,7.625 L12.75,7.625 L12.75,9.625 L14.75,9.625 L14.75,13.625 L5.75,13.625 L5.75,9.625 L7.75,9.625 L7.75,7.625 L8.75,7.625 L8.75,6.625 L11.75,6.625 Z M7.75,10.625 L6.75,10.625 L6.75,12.625 L7.75,12.625 L7.75,10.625 Z M9.75,10.625 L8.75,10.625 L8.75,12.625 L9.75,12.625 L9.75,10.625 Z M11.75,10.625 L10.75,10.625 L10.75,12.625 L11.75,12.625 L11.75,10.625 Z M13.75,10.625 L12.75,10.625 L12.75,12.625 L13.75,12.625 L13.75,10.625 Z" id="形状" fill="#8CFF33"></path>
                    <g id="共享图标_报警端口设置-" transform="translate(3.000000, 3.000000)" fill="#000000" opacity="0">
                        <rect id="矩形" x="0" y="0" width="16" height="16"></rect>
                    </g>
                </g>
            </g>
        </g>
    </g>
</svg>