<?xml version="1.0" encoding="UTF-8"?>
<svg width="16px" height="16px" viewBox="0 0 16 16" version="1.1" xmlns="http://www.w3.org/2000/svg" xmlns:xlink="http://www.w3.org/1999/xlink">
    <title>icon_基础_退出</title>
    <g id="控件" stroke="none" stroke-width="1" fill="none" fill-rule="evenodd" opacity="0.800000012">
        <g id="Header" transform="translate(-1192.000000, -32.000000)" fill="#FFFFFF" fill-rule="nonzero">
            <g id="编组-2" transform="translate(1192.000000, 31.000000)">
                <g id="icon_基础_退出" transform="translate(0.000000, 1.000000)">
                    <rect id="矩形" opacity="0" x="3.71262897e-06" y="0" width="15.9999963" height="15.9999963"></rect>
                    <path d="M12.0068109,14 C12.5590955,14 13.0068107,14.4477119 13.0068107,15 C13.0068107,15.5522811 12.5590955,16 12.0068109,16 L3.00481302,16 C1.68281332,16 0.769813534,15.5139964 0.324813637,14.5349966 C0.0308137055,13.8869968 -0.010186285,13.3579969 0.00181371221,11.9449972 L0.00481371151,11.5 L0.00481371151,4.5 C0.00481371151,4.37499898 0.00481371151,4.26999901 0.00181371221,4.05499906 C-0.010186285,2.64199939 0.0308137055,2.11299951 0.324813637,1.46499966 C0.769813534,0.485999887 1.68281332,0 3.00481302,0 L12.0068109,0 C12.5590955,0 13.0068107,0.447715146 13.0068107,1 C13.0068107,1.55228439 12.5590955,2 12.0068109,2 L3.00481302,2 C2.41181315,2 2.23581319,2.09399951 2.14481321,2.29199947 C2.02281324,2.56199941 1.99281325,2.95999931 2.00181325,4.03699906 L2.00481325,4.5 L2.00481325,11.5 C2.00481325,11.6329973 2.00481325,11.7409973 2.00181325,11.9629972 C1.99181325,13.039997 2.02281324,13.4379969 2.14581321,13.7079968 C2.23581319,13.9059968 2.41181315,14 3.00481302,14 L12.0068109,14 Z M11.900811,4.1999821 C12.1130325,4.20091681 12.316633,4.28407757 12.4688108,4.43199897 L15.4848101,7.43999827 C15.6368101,7.59199824 15.7248101,7.79999819 15.7248101,8.00799814 C15.7239225,8.22179481 15.6374946,8.4263409 15.4848101,8.57599801 L12.4608108,11.5599973 C12.3095336,11.7103945 12.104456,11.7941465 11.8911444,11.7926641 C11.6778328,11.7911421 11.4739551,11.7045101 11.3248111,11.5519973 C11.1744139,11.4007201 11.090662,11.1956425 11.0921443,10.9823309 C11.0936663,10.7690193 11.1802983,10.5651416 11.3328111,10.4159976 L13.7808105,8.00799814 L11.3328111,5.57599871 C11.181361,5.42578546 11.0961725,5.22130882 11.0961725,5.00799884 C11.0961725,4.79468886 11.181361,4.59021221 11.3328111,4.43999897 C11.481144,4.2853801 11.6865502,4.19858875 11.900811,4.1999821 L11.900811,4.1999821 Z M6.80481213,7.19999833 L14.4288104,7.19999833 C14.8768103,7.19999833 15.2288102,7.55999825 15.2288102,7.99999814 C15.2288102,8.43999804 14.8688103,8.79999796 14.4288104,8.79999796 L6.80481213,8.79999796 C6.35681224,8.79999796 6.00481232,8.43999804 6.00481232,7.99999814 C6.00481232,7.55999825 6.35681224,7.19999833 6.80481213,7.19999833 Z" id="形状"></path>
                </g>
            </g>
        </g>
    </g>
</svg>