<?xml version="1.0" encoding="UTF-8"?>
<svg width="48px" height="48px" viewBox="0 0 48 48" version="1.1" xmlns="http://www.w3.org/2000/svg" xmlns:xlink="http://www.w3.org/1999/xlink">
    <title>icon_拓扑列表_AP</title>
    <g id="icon_拓扑列表_AP" stroke="none" stroke-width="1" fill="none" fill-rule="evenodd">
        <rect id="矩形备份-4" fill="#208AFD" x="0" y="0" width="48" height="48" rx="24"></rect>
        <path d="M12.4598854,33 L13.5558739,29.2998643 L19.3904011,29.2998643 L20.4111748,33 L24,33 L18.3911175,15 L14.6518625,15 L9,33 L12.4598854,33 Z M18,26.25 L14,26.25 L16.0320856,19.5 L18,26.25 Z M30.2553191,33 L30.2553191,26.5278155 L33.5851064,26.5278155 C35.322695,26.5278155 36.6595745,26.0881954 37.5957447,25.2089552 C38.5319149,24.3297151 39,22.8276798 39,20.7028494 C39,18.7571235 38.5319149,17.3202171 37.5957447,16.3921303 C36.6595745,15.4640434 35.4042553,15 33.8297872,15 L33.8297872,15 L27,15 L27,33 L30.2553191,33 Z M33.3307544,24 L30,24 L30,18.375 L33.3307544,18.375 C34.1740812,18.375 34.8297872,18.5866935 35.2978723,19.0100806 C35.7659574,19.4334677 36,20.1419931 36,21.1356567 C36,22.1293203 35.7659574,22.8551267 35.2978723,23.313076 C34.8297872,23.7710253 34.1740812,24 33.3307544,24 L33.3307544,24 Z" id="AP" fill="#FFFFFF" fill-rule="nonzero"></path>
    </g>
</svg>