<?xml version="1.0" encoding="UTF-8"?>
<svg width="268.694475px" height="82.9164021px" viewBox="0 0 268.694475 82.9164021" version="1.1" xmlns="http://www.w3.org/2000/svg" xmlns:xlink="http://www.w3.org/1999/xlink">
    <title>img_移动logo</title>
    <defs>
        <polygon id="path-1" points="2.28089032e-15 0 78.9743746 0 78.9743746 39.3134 2.28089032e-15 39.3134"></polygon>
        <polygon id="path-3" points="0 83.744 275 83.744 275 0 0 0"></polygon>
    </defs>
    <g id="控件" stroke="none" stroke-width="1" fill="none" fill-rule="evenodd">
        <g id="img_移动logo" transform="translate(-0.000225, -0.827598)">
            <path d="M81.6686,51.8824 C74.2756,42.1034 63.2296,32.1024 60.1766,29.6264 C58.0356,27.8904 55.9116,27.0234 53.8116,27.0504 C51.7076,27.0774 49.6766,27.9434 47.8756,29.5114 C47.5196,29.8224 46.9986,30.2844 46.3596,30.8554 C41.9726,34.5524 28.4006,47.0244 28.0946,47.3154 C27.0656,48.2764 25.7466,48.9114 24.2666,48.8574 C22.9616,48.8044 21.5326,48.2204 20.0686,46.8614 C19.0606,45.9264 14.4246,42.2884 9.0086,36.1994 C5.6756,32.4554 2.9226,29.1174 2.9226,29.1174 C2.9226,29.1174 2.3126,30.3764 1.9716,31.2524 C1.6846,31.9854 1.9316,32.4434 2.0696,32.6444 C3.8796,35.2394 12.1436,45.1294 23.5376,54.9454 C25.6236,56.7434 27.8016,57.5474 29.9006,57.5194 C32.0046,57.4934 34.0366,56.6254 35.8366,55.0574 C36.1946,54.7474 36.7136,54.2874 37.3526,53.7184 C41.7416,50.0164 49.9636,42.4824 53.8616,38.8694 C54.6936,38.1154 55.3116,37.5464 55.6176,37.2584 C56.6486,36.2924 57.9666,35.6614 59.4426,35.7144 C60.7486,35.7654 62.1246,36.4124 63.6456,37.7094 C66.0796,39.7904 70.0296,43.4414 74.7046,48.3684 C78.1426,51.9924 80.7676,55.3804 80.7956,55.4184 C80.7956,55.4184 81.4366,54.1154 81.7776,53.2204 C82.0536,52.4914 81.8166,52.0764 81.6686,51.8824" id="Fill-1" fill="#FFFFFF"></path>
            <path d="M37.7689,15.9451 C33.9569,18.7281 18.2479,33.3171 15.1699,36.8051 C15.1699,36.8051 17.3799,39.2441 20.6929,41.9921 C21.5549,42.7321 22.5969,42.5741 23.4949,41.6731 C29.5419,35.5891 41.8849,24.7031 43.5459,23.3731 C48.2009,19.4221 53.6199,19.0751 58.5839,22.7931 C70.6399,31.8261 81.2989,46.0331 83.1339,48.6831 C83.1339,48.6831 83.4069,47.3781 83.5729,46.2031 C83.5789,46.1351 83.8049,45.0821 83.2019,44.1911 C71.8969,27.8651 59.8639,17.7931 55.2459,15.2811 C49.9579,12.3981 43.8559,11.5011 37.7689,15.9451" id="Fill-3" fill="#FFFFFF"></path>
            <path d="M25.0537,7.4224 C17.2967,13.6894 7.3047,22.9124 4.7677,25.6954 C4.7677,25.6954 6.6587,28.0484 9.6277,30.9554 C10.1997,31.4434 10.8057,31.3134 11.3097,30.7804 C18.9827,23.3724 27.2977,15.8084 32.1197,12.0784 C40.2617,5.7814 49.8077,5.1724 59.1127,12.6124 C62.5787,15.3854 65.6567,18.1244 70.1467,22.7494 C75.8947,29.0134 79.6427,34.2414 83.7457,40.1424 C83.7457,40.1424 83.7247,38.5614 83.2717,36.4644 C83.1927,36.1134 83.0377,35.5354 82.7837,35.0284 C81.9597,33.3724 78.3337,27.1514 73.0757,21.0114 C62.6457,8.8304 56.0627,5.1234 51.8397,2.9074 C46.2467,-0.0356 35.3417,-0.8926 25.0537,7.4224" id="Fill-5" fill="#FFFFFF"></path>
            <path d="M45.9713,68.6291 C49.7863,65.8431 65.4923,51.2551 68.5733,47.7661 C68.5733,47.7661 66.3653,45.3251 63.0473,42.5771 C62.1893,41.8391 61.1453,41.9961 60.2513,42.8991 C54.2003,48.9841 41.8573,59.8641 40.1983,61.1961 C35.5453,65.1451 30.1243,65.4941 25.1613,61.7751 C13.1053,52.7471 2.4473,38.5401 0.6103,35.8901 C0.6103,35.8901 0.3373,37.1941 0.1713,38.3661 C0.1633,38.4351 -0.0627,39.4891 0.5413,40.3791 C11.8503,56.7051 23.8793,66.7791 28.4973,69.2891 C33.7873,72.1721 39.8883,73.0711 45.9713,68.6291" id="Fill-7" fill="#FFFFFF"></path>
            <g id="编组" transform="translate(0.000225, 44.430600)">
                <mask id="mask-2" fill="white">
                    <use xlink:href="#path-1"></use>
                </mask>
                <g id="Clip-10"></g>
                <path d="M58.6893746,32.718 C66.4463746,26.45 76.4383746,17.226 78.9743746,14.443 C78.9743746,14.443 77.0843746,12.091 74.1153746,9.188 C73.5443746,8.696 72.9373746,8.828 72.4343746,9.359 C64.7623746,16.769 56.4453746,24.333 51.6223746,28.061 C43.4833746,34.357 33.9363746,34.968 24.6293746,27.528 C21.1643746,24.756 18.0863746,22.018 13.5933746,17.39 C7.85037462,11.127 4.09937462,5.897 2.28089032e-15,0 C2.28089032e-15,0 -0.0306253835,1.526 0.471374616,3.675 C0.553374616,4.027 0.705374616,4.604 0.959374616,5.112 C1.78337462,6.772 5.40837462,12.987 10.6663746,19.13 C21.0963746,31.312 27.6803746,35.021 31.9023746,37.234 C37.4963746,40.177 48.4033746,41.033 58.6893746,32.718" id="Fill-9" fill="#FFFFFF" mask="url(#mask-2)"></path>
            </g>
            <mask id="mask-4" fill="white">
                <use xlink:href="#path-3"></use>
            </mask>
            <g id="Clip-12"></g>
            <path d="M121.317,29.596 L132.452,29.596 L132.452,16.314 L121.317,16.314 L121.317,29.596 Z M106.293,29.596 L117.29,29.596 L117.29,16.314 L106.293,16.314 L106.293,29.596 Z M121.317,5.43 L117.29,5.43 L117.29,12.739 L102.414,12.739 L102.414,33.183 L117.29,33.183 L117.29,44.276 L121.317,44.276 L121.317,33.183 L136.343,33.183 L136.343,12.739 L121.317,12.739 L121.317,5.43 Z" id="Fill-11" fill="#FFFFFF" mask="url(#mask-4)"></path>
            <path d="M168.3696,25.4252 L165.6296,27.4912 L165.9096,27.7782 C167.0276,28.9532 168.4486,30.6762 169.6466,32.2872 L169.8746,32.5822 L172.7306,30.4022 L172.5056,30.1162 C171.4896,28.8212 169.9816,27.1072 168.5846,25.6612 L168.3696,25.4252 Z" id="Fill-13" fill="#FFFFFF" mask="url(#mask-4)"></path>
            <polygon id="Fill-14" fill="#FFFFFF" mask="url(#mask-4)" points="174.2381 33.1391 164.5461 33.1391 164.5461 25.1171 172.8501 25.1171 172.8501 21.7791 164.5461 21.7791 164.5461 16.7021 173.6241 16.7021 173.6241 13.3541 151.9361 13.3541 151.9361 16.7021 160.9711 16.7021 160.9711 21.7791 152.6751 21.7791 152.6751 25.1171 160.9711 25.1171 160.9711 33.1391 151.3281 33.1391 151.3281 36.4891 174.2381 36.4891"></polygon>
            <path d="M149.253,39.798 L176.37,39.798 L176.37,10.283 L149.253,10.283 L149.253,39.798 Z M145.559,43.285 L180.059,43.263 L180.059,6.83 L145.559,6.83 L145.559,43.285 Z" id="Fill-15" fill="#FFFFFF" mask="url(#mask-4)"></path>
            <path d="M203.535,27.8352 C201.862,26.3662 197.316,22.6732 197.316,22.6732 L197.316,20.7472 L202.677,20.7472 L202.677,17.2782 L197.316,17.2782 L197.316,11.6832 C201.108,11.0652 202.776,10.5572 202.776,10.5572 L202.035,7.0082 C202.035,7.0082 198.665,7.8622 195.209,8.3332 C190.769,8.9282 188.116,9.1872 188.116,9.1872 L188.509,12.6852 C188.509,12.6852 191.463,12.3712 193.743,11.9632 L193.743,17.2782 L187.642,17.2782 L187.642,20.7472 L193.218,20.7472 C191.713,25.3972 189.423,29.9012 186.937,33.4482 C186.937,33.4482 189.544,36.2702 189.573,36.2282 C191.167,33.9892 192.571,31.4672 193.743,28.7332 L193.743,44.2632 L197.316,44.2632 L197.316,27.2262 C198.641,28.4322 199.86,29.5652 201.006,30.6372 L201.266,30.9022 L203.798,28.0752 L203.535,27.8352 Z" id="Fill-16" fill="#FFFFFF" mask="url(#mask-4)"></path>
            <path d="M216.1393,25.0833 C216.7743,24.2353 217.0413,23.2813 217.0413,23.2813 L213.4903,22.6883 C214.1643,22.3133 214.8143,21.9203 215.4453,21.5233 C219.6923,18.8043 222.6783,15.5923 224.5403,11.9853 L224.5853,11.8973 L224.5853,8.6703 L212.0873,8.6703 C212.4833,8.0383 212.8513,7.3813 213.1903,6.7253 L213.3723,6.3663 L209.9443,5.0713 L209.8083,5.3563 C207.8803,9.2433 205.0743,12.6993 201.4913,15.6343 C201.4533,15.6673 203.3413,17.1153 204.4453,17.8163 C206.6093,15.8973 208.3873,13.9833 209.7293,12.1363 L220.2463,12.1363 C218.3923,14.5513 216.5683,16.5223 214.4713,17.8953 C213.0833,16.6633 211.8893,15.6773 210.1023,14.2763 L209.8483,14.0823 L207.5873,16.5363 L207.8803,16.7703 C209.4753,18.0783 210.3913,18.8913 211.4403,19.8853 C208.6863,21.3773 205.6703,22.5533 202.2283,23.5783 C202.2283,23.5783 204.4823,26.6363 204.5503,26.6163 C206.5893,25.9003 210.7433,24.0553 212.5383,23.2413 C210.1633,27.9353 204.9523,31.6923 201.3343,33.6693 C201.3343,33.6693 202.8943,35.3413 204.1173,36.3103 C209.8833,33.6693 213.8453,28.5373 213.8453,28.5373 L221.8093,28.5373 C221.2953,31.2813 218.8983,34.6863 215.5503,36.7413 C214.2143,35.4183 212.9153,34.1193 211.3333,32.6953 L208.7933,34.9073 C210.1853,36.1943 211.4183,37.5163 212.4613,38.6093 C207.3783,40.8073 200.5993,41.1173 200.5993,41.1173 L202.0053,44.2133 C202.0053,44.2133 221.9113,43.7073 225.9373,28.4053 L225.9653,25.0833 L216.1393,25.0833 Z" id="Fill-17" fill="#FFFFFF" mask="url(#mask-4)"></path>
            <polygon id="Fill-18" fill="#FFFFFF" mask="url(#mask-4)" points="232.823 12.676 249.042 12.676 249.042 9.106 232.823 9.106"></polygon>
            <path d="M249.7057,37.0374 C248.5507,34.1894 246.7747,30.1744 245.4547,27.3024 L245.2987,26.9784 L241.9877,28.4644 L242.1327,28.8004 C243.0097,30.7484 243.8057,32.5214 244.6057,34.5324 L236.0667,36.5484 C237.9527,33.4684 240.3057,26.5294 241.5837,22.8154 L250.5877,22.8154 L250.5877,19.2324 L231.2097,19.2324 L231.2097,22.8154 L237.5867,22.8154 C237.2067,24.8524 234.9797,31.6024 231.9647,37.1164 C231.5877,37.7934 231.0687,38.2014 231.0687,38.2014 L232.1347,40.7694 C232.1347,40.7694 242.5407,37.9604 245.6677,37.4894 L246.0417,38.4274 L249.7057,37.0374 Z" id="Fill-19" fill="#FFFFFF" mask="url(#mask-4)"></path>
            <path d="M258.2947,13.432 C258.3407,10.939 258.3767,8.411 258.3807,5.876 L258.3807,5.513 L254.4897,5.513 L254.4897,5.865 C254.5037,8.463 254.4897,10.98 254.4647,13.432 L249.4257,13.432 L249.4257,17.094 L254.4117,17.094 L254.4117,21.958 C254.4117,29.358 253.1427,33.139 250.2557,37.53 C248.5347,40.213 245.3827,42.031 245.3827,42.031 L248.2807,44.843 C248.2807,44.843 258.1527,39.676 258.1527,23.46 L258.2237,17.094 L264.8327,17.094 C264.7577,23.724 264.5197,30.243 264.1457,36.489 C264.0827,38.44 263.2557,39.35 261.5357,39.35 C260.0987,39.32 257.1937,39.313 257.1937,39.313 C257.4177,40.481 257.8497,43.197 257.8497,43.197 L262.5027,43.197 C265.7937,43.143 267.6197,41.175 267.9147,37.33 C268.2467,31.421 268.5077,23.491 268.6877,13.81 L268.6947,13.432 L258.2947,13.432 Z" id="Fill-20" fill="#FFFFFF" mask="url(#mask-4)"></path>
            <path d="M137.453,59.6744 C136.943,59.2594 136.385,58.9804 135.79,58.8094 C134.634,58.5054 133.431,58.5054 132.429,58.7814 C131.947,58.9074 131.478,59.0844 131.057,59.3104 C130.636,59.5234 130.243,59.7974 129.886,60.1084 C129.73,60.2624 129.562,60.4094 129.426,60.5654 L129.426,51.1804 L126.419,51.1804 L126.419,74.3984 L129.426,74.3984 L129.426,63.6464 C129.946,62.9144 130.573,62.3154 131.278,61.8894 C132.006,61.4594 132.772,61.2344 133.566,61.2344 C134.507,61.2344 135.158,61.5004 135.563,62.0334 C135.977,62.5704 136.184,63.4294 136.184,64.5604 L136.184,74.3984 L139.188,74.3984 L139.188,64.1674 C139.188,63.0414 139.03,62.1134 138.71,61.3924 C138.389,60.6654 137.969,60.0904 137.453,59.6744" id="Fill-21" fill="#FFFFFF" mask="url(#mask-4)"></path>
            <polygon id="Fill-22" fill="#FFFFFF" mask="url(#mask-4)" points="142.432 56.104 145.443 56.104 145.443 52.804 142.432 52.804"></polygon>
            <polygon id="Fill-23" fill="#FFFFFF" mask="url(#mask-4)" points="142.431 74.399 145.442 74.399 145.442 58.967 142.431 58.967"></polygon>
            <path d="M159.9435,59.847 C159.4785,59.405 158.9115,59.067 158.2775,58.871 C157.1385,58.51 155.7345,58.488 154.6275,58.781 C154.1225,58.907 153.6565,59.084 153.2265,59.327 C152.8035,59.555 152.4065,59.831 152.0715,60.142 C151.8625,60.327 151.6695,60.526 151.4795,60.73 L151.0855,58.967 L148.6795,58.967 L148.6795,74.399 L151.6805,74.399 L151.6805,63.646 C152.2135,62.915 152.8445,62.316 153.5625,61.889 C154.2915,61.459 155.0615,61.234 155.8325,61.234 C156.7055,61.234 157.3385,61.485 157.7765,61.982 C158.2265,62.488 158.4465,63.354 158.4465,64.56 L158.4465,74.399 L161.4545,74.399 L161.4545,64.167 C161.4545,63.163 161.3205,62.283 161.0585,61.586 C160.7805,60.877 160.4085,60.291 159.9435,59.847" id="Fill-24" fill="#FFFFFF" mask="url(#mask-4)"></path>
            <path d="M173.1048,67.816 L173.1048,70.431 C172.9958,70.541 172.8528,70.666 172.6748,70.818 C172.4438,71.022 172.1558,71.215 171.8238,71.414 C171.4958,71.612 171.1118,71.791 170.6918,71.93 C169.9688,72.172 169.0598,72.221 168.3128,71.991 C168.0088,71.894 167.7338,71.748 167.5178,71.551 C167.3028,71.355 167.1208,71.105 166.9928,70.802 C166.8648,70.498 166.7958,70.129 166.7958,69.716 C166.7958,68.896 167.0488,68.319 167.5488,67.933 C168.0828,67.535 168.8318,67.337 169.7828,67.337 C170.4998,67.342 171.1688,67.406 171.7568,67.515 C172.2628,67.613 172.7138,67.706 173.1048,67.816 M175.6428,61.648 C175.2088,60.721 174.4678,59.971 173.4718,59.408 C172.4748,58.863 171.1968,58.576 169.6488,58.576 C169.2228,58.576 168.7928,58.601 168.3718,58.64 C167.9398,58.685 167.5308,58.747 167.1468,58.824 C166.7658,58.907 166.3928,58.999 166.0488,59.115 C165.6928,59.227 165.3868,59.352 165.1258,59.487 L164.9608,59.562 L164.9608,62.196 L165.3608,62.044 C165.9988,61.808 166.6498,61.615 167.2968,61.478 C167.9398,61.345 168.6238,61.269 169.3508,61.269 C170.3018,61.269 171.0678,61.428 171.6218,61.719 C172.1558,62.025 172.5558,62.407 172.7918,62.851 C172.9068,63.058 172.9858,63.307 173.0338,63.588 C173.0828,63.888 173.1048,64.235 173.1048,64.617 L173.1048,65.263 C172.6638,65.114 172.1668,65 171.6358,64.896 C170.9688,64.773 170.2308,64.697 169.4418,64.686 C168.6018,64.686 167.8278,64.801 167.1258,65.025 C166.4318,65.262 165.8128,65.585 165.2988,66.024 C164.7918,66.454 164.3928,66.993 164.1078,67.604 C163.8338,68.222 163.6818,68.933 163.6818,69.716 C163.6818,70.498 163.8128,71.211 164.0638,71.839 C164.3188,72.468 164.6878,73.008 165.1388,73.447 C165.6028,73.884 166.1598,74.226 166.7908,74.452 C167.4168,74.673 168.1158,74.786 168.8698,74.786 C169.4158,74.786 169.9478,74.728 170.4338,74.605 C170.9248,74.49 171.3788,74.325 171.7858,74.129 C172.2028,73.925 172.5728,73.688 172.8888,73.438 C173.0488,73.309 173.1898,73.182 173.3188,73.052 L173.5388,74.399 L176.1158,74.399 L176.1158,64.192 C176.1158,63.702 176.0748,63.243 176.0008,62.832 C175.9388,62.407 175.8108,62.005 175.6428,61.648" id="Fill-25" fill="#FFFFFF" mask="url(#mask-4)"></path>
            <path d="M120.6466,67.6217 C119.1596,70.1427 116.4466,71.7017 113.5396,71.7017 C109.0006,71.7017 105.3016,68.0107 105.3016,63.4617 C105.3016,58.9217 109.0006,55.2287 113.5396,55.2287 C116.4346,55.2287 119.1376,56.7687 120.6206,59.2637 L120.7096,59.4087 L123.9056,59.4087 L123.7276,58.9987 C121.9466,54.9497 117.9536,52.3417 113.5396,52.3417 C107.4096,52.3417 102.4136,57.3297 102.4136,63.4617 C102.4136,69.5947 107.4096,74.5907 113.5396,74.5907 C117.9696,74.5907 121.9756,71.9607 123.7446,67.8957 L123.9266,67.4877 L120.7286,67.4877 L120.6466,67.6217 Z" id="Fill-26" fill="#FFFFFF" mask="url(#mask-4)"></path>
            <path d="M197.6969,64.91 C197.2599,65.94 196.7069,67.359 196.0659,69.152 C195.4799,67.528 194.9399,66.104 194.4379,64.912 L189.4439,52.907 L185.2799,52.907 L185.2799,74.399 L188.4159,74.399 L188.4159,63.996 C188.4159,62.005 188.3609,59.825 188.2609,57.5 C188.8269,58.999 189.3929,60.409 189.9409,61.734 L195.2879,74.399 L196.8479,74.399 L202.1879,61.734 C202.7229,60.487 203.2829,59.067 203.8689,57.496 C203.7709,59.85 203.7239,62.042 203.7239,63.996 L203.7239,74.399 L206.8529,74.399 L206.8529,52.907 L202.6909,52.907 L197.6969,64.91 Z" id="Fill-27" fill="#FFFFFF" mask="url(#mask-4)"></path>
            <path d="M237.8559,66.6176 C237.8559,67.4506 237.7589,68.2126 237.5799,68.8966 C237.4079,69.5736 237.1389,70.1606 236.7899,70.6486 C236.4559,71.1216 236.0279,71.4886 235.5259,71.7556 C235.0209,72.0116 234.4239,72.1416 233.7559,72.1416 C233.3119,72.1416 232.9009,72.0806 232.5299,71.9456 C232.1589,71.8146 231.8089,71.6466 231.5079,71.4576 C231.2039,71.2686 230.9359,71.0606 230.7209,70.8396 C230.5269,70.6506 230.3629,70.4646 230.2379,70.3006 L230.2379,62.7586 C230.7029,62.3156 231.2319,61.9596 231.8249,61.6856 C232.8469,61.1966 234.0399,61.0866 235.1979,61.4636 C235.6439,61.6036 236.0719,61.8616 236.4709,62.2436 C236.8659,62.6216 237.1959,63.1636 237.4619,63.8516 C237.7189,64.5496 237.8559,65.4836 237.8559,66.6176 M239.8399,61.6476 C239.4869,61.0696 239.0799,60.5726 238.6189,60.1806 C238.1689,59.7886 237.6849,59.4736 237.1859,59.2326 C236.7019,58.9876 236.1889,58.8146 235.6799,58.7256 C235.1819,58.6246 234.7079,58.5756 234.2749,58.5756 C233.3359,58.5756 232.4779,58.7426 231.7329,59.0666 C231.1909,59.3156 230.6869,59.6276 230.2379,60.0116 L230.2379,51.1796 L227.2349,51.1796 L227.2349,74.3986 L229.5689,74.3986 L229.9859,73.0336 C230.0349,73.0846 230.0799,73.1286 230.1299,73.1866 C230.3459,73.4386 230.6349,73.6746 230.9949,73.9176 C231.3539,74.1576 231.7979,74.3616 232.2949,74.5366 C232.8129,74.6966 233.4099,74.7866 234.0669,74.7866 C234.9419,74.7866 235.8109,74.6166 236.6339,74.2846 C237.4619,73.9466 238.2009,73.4226 238.8449,72.7396 C239.4829,72.0506 240.0039,71.1676 240.3869,70.1206 C240.7719,69.0936 240.9719,67.8396 240.9719,66.4266 C240.9719,65.4086 240.8629,64.4986 240.6629,63.7066 C240.4589,62.9166 240.1869,62.2276 239.8399,61.6476" id="Fill-28" fill="#FFFFFF" mask="url(#mask-4)"></path>
            <polygon id="Fill-29" fill="#FFFFFF" mask="url(#mask-4)" points="243.351 74.399 246.362 74.399 246.362 58.967 243.351 58.967"></polygon>
            <polygon id="Fill-30" fill="#FFFFFF" mask="url(#mask-4)" points="243.351 56.104 246.362 56.104 246.362 52.804 243.351 52.804"></polygon>
            <polygon id="Fill-31" fill="#FFFFFF" mask="url(#mask-4)" points="249.758 74.399 252.766 74.399 252.766 51.18 249.758 51.18"></polygon>
            <path d="M258.3011,64.8123 C258.3701,64.3833 258.4911,63.9883 258.6541,63.6013 C258.8631,63.1283 259.1331,62.7213 259.4711,62.3633 C259.8011,62.0203 260.1961,61.7393 260.6381,61.5403 C261.5181,61.1383 262.6651,61.1463 263.4461,61.5283 C263.8461,61.7183 264.1741,61.9933 264.4411,62.3283 C264.7161,62.6793 264.9271,63.0873 265.0581,63.5593 C265.1781,63.9523 265.2401,64.3693 265.2721,64.8123 L258.3011,64.8123 Z M267.9301,62.7933 C267.6131,61.8263 267.1771,61.0193 266.6211,60.3923 C266.0561,59.7673 265.3891,59.3023 264.6321,59.0103 C263.0741,58.4183 261.1771,58.4273 259.5361,59.0993 C258.6981,59.4463 257.9411,59.9703 257.2861,60.6693 C256.6391,61.3593 256.1171,62.2373 255.7241,63.2553 C255.3521,64.2793 255.1511,65.5073 255.1511,66.8903 C255.1511,68.2903 255.3601,69.5163 255.7541,70.5183 C256.1491,71.5303 256.7181,72.3633 257.4281,72.9933 C258.1411,73.6203 258.9981,74.0863 259.9721,74.3663 C260.9221,74.6473 261.9531,74.7863 263.0451,74.7863 C263.9481,74.7863 264.8171,74.7133 265.6051,74.5563 C266.4151,74.4043 267.0981,74.1813 267.6571,73.9183 L267.8091,73.8303 L267.8091,71.2283 L267.4221,71.3623 C266.7791,71.5933 266.1281,71.7823 265.4851,71.9013 C264.8531,72.0293 264.1331,72.0973 263.3551,72.0973 C262.6111,72.0973 261.9101,71.9963 261.2741,71.8263 C260.6521,71.6473 260.0991,71.3643 259.6441,70.9783 C259.1771,70.6003 258.8111,70.0963 258.5451,69.4843 C258.3061,68.9233 258.1781,68.2533 258.1521,67.4773 L268.3801,67.4773 L268.3921,67.1923 C268.3991,66.8753 268.4081,66.6683 268.4081,66.5753 L268.4081,66.2583 C268.4081,64.9193 268.2471,63.7533 267.9301,62.7933 L267.9301,62.7933 Z" id="Fill-32" fill="#FFFFFF" mask="url(#mask-4)"></path>
            <path d="M217.0643,72.0681 C214.0473,72.0681 211.6113,69.6271 211.6113,66.6081 C211.6113,63.6011 214.0473,61.1611 217.0643,61.1611 C220.0763,61.1611 222.5173,63.6011 222.5173,66.6081 C222.5173,69.6271 220.0763,72.0681 217.0643,72.0681 M217.0643,58.5301 C212.6003,58.5301 208.9843,62.1461 208.9843,66.6081 C208.9843,71.0801 212.6003,74.6961 217.0643,74.6961 C221.5303,74.6961 225.1463,71.0801 225.1463,66.6081 C225.1463,62.1461 221.5303,58.5301 217.0643,58.5301" id="Fill-33" fill="#FFFFFF" mask="url(#mask-4)"></path>
        </g>
    </g>
</svg>