<?xml version="1.0" encoding="utf-8"?>
<svg version="1.1" xmlns:xlink="http://www.w3.org/1999/xlink" width="24px" height="24px" xmlns="http://www.w3.org/2000/svg">
  <g transform="matrix(1 0 0 1 -713 -252 )">
    <path d="M 725 252  C 731.72 252  737 257.28  737 264  C 737 270.72  731.72 276  725 276  C 718.28 276  713 270.72  713 264  C 713 257.28  718.28 252  725 252  Z " fill-rule="nonzero" fill="#8a8989" stroke="none" />
    <path d="M 725 252.5  C 731.44 252.5  736.5 257.56  736.5 264  C 736.5 270.44  731.44 275.5  725 275.5  C 718.56 275.5  713.5 270.44  713.5 264  C 713.5 257.56  718.56 252.5  725 252.5  Z " stroke-width="1" stroke="#797979" fill="none" />
  </g>
</svg>