<?xml version="1.0" encoding="utf-8"?>
<svg version="1.1" xmlns:xlink="http://www.w3.org/1999/xlink" width="24px" height="24px" xmlns="http://www.w3.org/2000/svg">
  <g transform="matrix(1 0 0 1 -713 -489 )">
    <path d="M 725 489  C 731.72 489  737 494.28  737 501  C 737 507.72  731.72 513  725 513  C 718.28 513  713 507.72  713 501  C 713 494.28  718.28 489  725 489  Z " fill-rule="nonzero" fill="#9f9f9f" stroke="none" />
    <path d="M 725 489.5  C 731.44 489.5  736.5 494.56  736.5 501  C 736.5 507.44  731.44 512.5  725 512.5  C 718.56 512.5  713.5 507.44  713.5 501  C 713.5 494.56  718.56 489.5  725 489.5  Z " stroke-width="1" stroke="#797979" fill="none" />
  </g>
</svg>