<?xml version="1.0" encoding="utf-8"?>
<svg version="1.1" xmlns:xlink="http://www.w3.org/1999/xlink" width="24px" height="24px" xmlns="http://www.w3.org/2000/svg">
  <g transform="matrix(1 0 0 1 -713 -565 )">
    <path d="M 725 565  C 731.72 565  737 570.28  737 577  C 737 583.72  731.72 589  725 589  C 718.28 589  713 583.72  713 577  C 713 570.28  718.28 565  725 565  Z " fill-rule="nonzero" fill="#909090" stroke="none" />
    <path d="M 725 565.5  C 731.44 565.5  736.5 570.56  736.5 577  C 736.5 583.44  731.44 588.5  725 588.5  C 718.56 588.5  713.5 583.44  713.5 577  C 713.5 570.56  718.56 565.5  725 565.5  Z " stroke-width="1" stroke="#797979" fill="none" />
  </g>
</svg>