<?xml version="1.0" encoding="utf-8"?>
<svg version="1.1" xmlns:xlink="http://www.w3.org/1999/xlink" width="20px" height="20px" viewBox="176 224  20 20" xmlns="http://www.w3.org/2000/svg">
  <path d="M 176.5 226  A 1.5 1.5 0 0 1 178 224.5 L 194 224.5  A 1.5 1.5 0 0 1 195.5 226 L 195.5 242  A 1.5 1.5 0 0 1 194 243.5 L 178 243.5  A 1.5 1.5 0 0 1 176.5 242 L 176.5 226  Z " fill-rule="nonzero" fill="#f0f0f0" stroke="none" />
  <path d="M 176.5 226  A 1.5 1.5 0 0 1 178 224.5 L 194 224.5  A 1.5 1.5 0 0 1 195.5 226 L 195.5 242  A 1.5 1.5 0 0 1 194 243.5 L 178 243.5  A 1.5 1.5 0 0 1 176.5 242 L 176.5 226  Z " stroke-width="1" stroke="#797979" fill="none" />
  <path d="M 180.28571428571428 234  L 184.57142857142858 238.2857142857143  L 191.71428571428572 228.28571428571428  " stroke-width="4.285714285714286" stroke="#797979" fill="none" />
</svg>