<?xml version="1.0" encoding="utf-8"?>
<svg version="1.1" xmlns:xlink="http://www.w3.org/1999/xlink" width="20px" height="20px" viewBox="176 186  20 20" xmlns="http://www.w3.org/2000/svg">
  <path d="M 176.5 188  A 1.5 1.5 0 0 1 178 186.5 L 194 186.5  A 1.5 1.5 0 0 1 195.5 188 L 195.5 204  A 1.5 1.5 0 0 1 194 205.5 L 178 205.5  A 1.5 1.5 0 0 1 176.5 204 L 176.5 188  Z " fill-rule="nonzero" fill="#f0f0f0" stroke="none" />
  <path d="M 176.5 188  A 1.5 1.5 0 0 1 178 186.5 L 194 186.5  A 1.5 1.5 0 0 1 195.5 188 L 195.5 204  A 1.5 1.5 0 0 1 194 205.5 L 178 205.5  A 1.5 1.5 0 0 1 176.5 204 L 176.5 188  Z " stroke-width="1" stroke="#797979" fill="none" />
</svg>