<?xml version="1.0" encoding="utf-8"?>
<svg version="1.1" xmlns:xlink="http://www.w3.org/1999/xlink" width="20px" height="20px" viewBox="302 186  20 20" xmlns="http://www.w3.org/2000/svg">
  <path d="M 302.5 188  A 1.5 1.5 0 0 1 304 186.5 L 320 186.5  A 1.5 1.5 0 0 1 321.5 188 L 321.5 204  A 1.5 1.5 0 0 1 320 205.5 L 304 205.5  A 1.5 1.5 0 0 1 302.5 204 L 302.5 188  Z " fill-rule="nonzero" fill="#f0f0f0" stroke="none" />
  <path d="M 302.5 188  A 1.5 1.5 0 0 1 304 186.5 L 320 186.5  A 1.5 1.5 0 0 1 321.5 188 L 321.5 204  A 1.5 1.5 0 0 1 320 205.5 L 304 205.5  A 1.5 1.5 0 0 1 302.5 204 L 302.5 188  Z " stroke-width="1" stroke="#797979" fill="none" />
  <path d="M 306.2857142857143 196  L 310.57142857142856 200.2857142857143  L 317.7142857142857 190.28571428571428  " stroke-width="4.285714285714286" stroke="#797979" fill="none" />
</svg>