<?xml version="1.0" encoding="utf-8"?>
<svg version="1.1" xmlns:xlink="http://www.w3.org/1999/xlink" width="20px" height="20px" viewBox="176 260  20 20" xmlns="http://www.w3.org/2000/svg">
  <path d="M 176.5 262  A 1.5 1.5 0 0 1 178 260.5 L 194 260.5  A 1.5 1.5 0 0 1 195.5 262 L 195.5 278  A 1.5 1.5 0 0 1 194 279.5 L 178 279.5  A 1.5 1.5 0 0 1 176.5 278 L 176.5 262  Z " fill-rule="nonzero" fill="#ffffff" stroke="none" fill-opacity="0" />
  <path d="M 176.5 262  A 1.5 1.5 0 0 1 178 260.5 L 194 260.5  A 1.5 1.5 0 0 1 195.5 262 L 195.5 278  A 1.5 1.5 0 0 1 194 279.5 L 178 279.5  A 1.5 1.5 0 0 1 176.5 278 L 176.5 262  Z " stroke-width="1" stroke="#797979" fill="none" />
  <path d="M 180.28571428571428 270  L 184.57142857142858 274.2857142857143  L 191.71428571428572 264.2857142857143  " stroke-width="4.285714285714286" stroke="#797979" fill="none" />
</svg>