<?xml version="1.0" encoding="utf-8"?>
<svg version="1.1" xmlns:xlink="http://www.w3.org/1999/xlink" width="20px" height="20px" viewBox="424 186  20 20" xmlns="http://www.w3.org/2000/svg">
  <path d="M 424.5 188  A 1.5 1.5 0 0 1 426 186.5 L 442 186.5  A 1.5 1.5 0 0 1 443.5 188 L 443.5 204  A 1.5 1.5 0 0 1 442 205.5 L 426 205.5  A 1.5 1.5 0 0 1 424.5 204 L 424.5 188  Z " fill-rule="nonzero" fill="#ffffff" stroke="none" fill-opacity="0" />
  <path d="M 424.5 188  A 1.5 1.5 0 0 1 426 186.5 L 442 186.5  A 1.5 1.5 0 0 1 443.5 188 L 443.5 204  A 1.5 1.5 0 0 1 442 205.5 L 426 205.5  A 1.5 1.5 0 0 1 424.5 204 L 424.5 188  Z " stroke-width="1" stroke="#797979" fill="none" />
  <path d="M 428.2857142857143 196  L 432.57142857142856 200.2857142857143  L 439.7142857142857 190.28571428571428  " stroke-width="4.285714285714286" stroke="#797979" fill="none" />
</svg>