<?xml version="1.0" encoding="utf-8"?>
<svg version="1.1" xmlns:xlink="http://www.w3.org/1999/xlink" width="20px" height="20px" viewBox="190 129  20 20" xmlns="http://www.w3.org/2000/svg">
  <path d="M 200 129  C 205.6 129  210 133.4  210 139  C 210 144.6  205.6 149  200 149  C 194.4 149  190 144.6  190 139  C 190 133.4  194.4 129  200 129  Z " fill-rule="nonzero" fill="#ffffff" stroke="none" fill-opacity="0" />
  <path d="M 200 129.5  C 205.32 129.5  209.5 133.68  209.5 139  C 209.5 144.32  205.32 148.5  200 148.5  C 194.68 148.5  190.5 144.32  190.5 139  C 190.5 133.68  194.68 129.5  200 129.5  Z " stroke-width="1" stroke="#797979" fill="none" />
  <path d="M 200 144  C 197.2 144  195 141.8  195 139  C 195 136.2  197.2 134  200 134  C 202.8 134  205 136.2  205 139  C 205 141.8  202.8 144  200 144  " fill-rule="nonzero" fill="#797979" stroke="none" />
</svg>