<?xml version="1.0" encoding="utf-8"?>
<svg version="1.1" xmlns:xlink="http://www.w3.org/1999/xlink" width="55px" height="55px" xmlns="http://www.w3.org/2000/svg">
  <g transform="matrix(1 0 0 1 -140 -275 )">
    <path d="M 167.5 275  C 182.9 275  195 287.1  195 302.5  C 195 317.9  182.9 330  167.5 330  C 152.1 330  140 317.9  140 302.5  C 140 287.1  152.1 275  167.5 275  Z " fill-rule="nonzero" fill="#ffffff" stroke="none" />
    <path d="M 167.5 275.5  C 182.62 275.5  194.5 287.38  194.5 302.5  C 194.5 317.62  182.62 329.5  167.5 329.5  C 152.38 329.5  140.5 317.62  140.5 302.5  C 140.5 287.38  152.38 275.5  167.5 275.5  Z " stroke-width="1" stroke="#797979" fill="none" />
  </g>
</svg>