<?xml version="1.0" encoding="utf-8"?>
<svg version="1.1" xmlns:xlink="http://www.w3.org/1999/xlink" width="20px" height="20px" viewBox="691 420  20 20" xmlns="http://www.w3.org/2000/svg">
  <path d="M 701 420  C 706.6 420  711 424.4  711 430  C 711 435.6  706.6 440  701 440  C 695.4 440  691 435.6  691 430  C 691 424.4  695.4 420  701 420  Z " fill-rule="nonzero" fill="#ffffff" stroke="none" fill-opacity="0" />
  <path d="M 701 420.5  C 706.32 420.5  710.5 424.68  710.5 430  C 710.5 435.32  706.32 439.5  701 439.5  C 695.68 439.5  691.5 435.32  691.5 430  C 691.5 424.68  695.68 420.5  701 420.5  Z " stroke-width="1" stroke="#797979" fill="none" />
  <path d="M 701 435  C 698.2 435  696 432.8  696 430  C 696 427.2  698.2 425  701 425  C 703.8 425  706 427.2  706 430  C 706 432.8  703.8 435  701 435  " fill-rule="nonzero" fill="#797979" stroke="none" />
</svg>