<?xml version="1.0" encoding="utf-8"?>
<svg version="1.1" xmlns:xlink="http://www.w3.org/1999/xlink" width="20px" height="20px" viewBox="839 420  20 20" xmlns="http://www.w3.org/2000/svg">
  <path d="M 849 420  C 854.6 420  859 424.4  859 430  C 859 435.6  854.6 440  849 440  C 843.4 440  839 435.6  839 430  C 839 424.4  843.4 420  849 420  Z " fill-rule="nonzero" fill="#f0f0f0" stroke="none" />
  <path d="M 849 420.5  C 854.32 420.5  858.5 424.68  858.5 430  C 858.5 435.32  854.32 439.5  849 439.5  C 843.68 439.5  839.5 435.32  839.5 430  C 839.5 424.68  843.68 420.5  849 420.5  Z " stroke-width="1" stroke="#797979" fill="none" />
  <path d="M 849 435  C 846.2 435  844 432.8  844 430  C 844 427.2  846.2 425  849 425  C 851.8 425  854 427.2  854 430  C 854 432.8  851.8 435  849 435  " fill-rule="nonzero" fill="#797979" stroke="none" />
</svg>